<svg width="512" height="432" viewBox="0 0 512 432" fill="none" xmlns="http://www.w3.org/2000/svg">
<path d="M455.8 0H58.2C26.1 0 0 25.6 0 57V373C0 405 26.7 432 58.2 432H455.8C486.8 432 512 405.5 512 373V57C512 25 487.3 0 455.8 0ZM472 373C472 383.5 464.7 392 455.8 392H58.2C48.7 392 40 382.9 40 373V57C40 47.6 48.2 40 58.2 40H455.8C465.3 40 472 47 472 57V373Z" fill="url(#paint0_linear)"/>
<path d="M176.4 186.4C180.1 183.9 182.9 182 184.9 180.6C189.3 177.6 196.6 172.5 196.6 161.9C196.6 150.9 187.6 141.9 176.6 141.9C171.6 141.9 167.1 143.7 163.6 146.7C158.3 150.6 125.7 172.2 81.5 201.3C75.6 205.2 71.9 211.6 71.7 218.6C71.4 225.6 74.6 232.3 80.2 236.7L164.4 302.1C168 304.9 172.4 306.3 176.7 306.3C182.7 306.3 188.6 303.6 192.5 298.6C199.3 289.9 197.7 277.3 189 270.5L124.9 220.7C132.8 215.5 141.9 209.5 150.6 203.7C161.5 196.5 170.2 190.6 176.4 186.4ZM162.8 147.5C162.2 148.1 161.6 148.7 161.1 149.3C161.6 148.6 162.2 148 162.8 147.5Z" fill="url(#paint1_linear)"/>
<path d="M430.8 202.6C386.5 173.5 354 151.8 348.7 148C345.2 145 340.7 143.2 335.7 143.2C324.7 143.2 315.7 152.2 315.7 163.2C315.7 173.8 323 178.9 327.4 181.9C329.4 183.3 332.2 185.2 335.9 187.7C342.1 191.9 350.9 197.7 361.9 205C370.6 210.8 379.6 216.8 387.6 222L323.5 271.8C314.8 278.6 313.2 291.1 320 299.9C323.9 305 329.8 307.6 335.8 307.6C340.1 307.6 344.4 306.2 348.1 303.4L432.3 238C437.9 233.6 441.1 226.9 440.8 219.9C440.3 212.9 436.6 206.4 430.8 202.6V202.6ZM349.4 148.6C350 149.1 350.5 149.8 351.1 150.4C350.6 149.8 350 149.2 349.4 148.6Z" fill="url(#paint2_linear)"/>
<path d="M285.2 110.6C274.5 107.7 263.6 114.1 260.7 124.7L210.5 312.2C207.6 322.9 214 333.8 224.6 336.7C226.3 337.2 228.1 337.4 229.8 337.4C238.6 337.4 246.7 331.5 249.1 322.6L299.3 135.1C302.2 124.4 295.9 113.4 285.2 110.6V110.6Z" fill="url(#paint3_linear)"/>
<defs>
<linearGradient id="paint0_linear" x1="19" y1="216" x2="505" y2="216" gradientUnits="userSpaceOnUse">
<stop stop-color="#FF884B"/>
<stop offset="0.3498" stop-color="#FF634C"/>
<stop offset="0.6552" stop-color="#FE4A4F"/>
<stop offset="1" stop-color="#FE4840"/>
</linearGradient>
<linearGradient id="paint1_linear" x1="19" y1="224.1" x2="505" y2="224.1" gradientUnits="userSpaceOnUse">
<stop stop-color="#FF884B"/>
<stop offset="0.3498" stop-color="#FF634C"/>
<stop offset="0.6552" stop-color="#FE4A4F"/>
<stop offset="1" stop-color="#FE4840"/>
</linearGradient>
<linearGradient id="paint2_linear" x1="19.0001" y1="225.4" x2="505" y2="225.4" gradientUnits="userSpaceOnUse">
<stop stop-color="#FF884B"/>
<stop offset="0.3498" stop-color="#FF634C"/>
<stop offset="0.6552" stop-color="#FE4A4F"/>
<stop offset="1" stop-color="#FE4840"/>
</linearGradient>
<linearGradient id="paint3_linear" x1="19" y1="223.651" x2="505" y2="223.651" gradientUnits="userSpaceOnUse">
<stop stop-color="#FF884B"/>
<stop offset="0.3498" stop-color="#FF634C"/>
<stop offset="0.6552" stop-color="#FE4A4F"/>
<stop offset="1" stop-color="#FE4840"/>
</linearGradient>
</defs>
</svg>
